<?xml version="1.0"?>
<svg xmlns="http://www.w3.org/2000/svg" xmlns:xlink="http://www.w3.org/1999/xlink" version="1.1" viewBox="0 0 471.685 471.685" enable-background="new 0 0 471.685 471.685" width="512px" height="512px" class=""><g><path d="m360.985,197.128c-21.814-56.685-4.509-111.171 2.881-134.438 0.537-1.691 1.026-3.231 1.452-4.612l5.626-18.272-18.218,5.8c-0.928,0.296-12.081,3.872-29.322,10.424-0.223-6.776-0.229-15.32 0.524-23.623l1.009-11.125-11.169,.225c-0.959,0.02-23.803,0.57-51.159,9.036-4.459,1.38-8.778,2.896-12.958,4.538-28.178-25.52-73.104-32.948-75.116-33.27l-11.345-1.811-.23,11.486c-0.466,23.31-9.634,39.281-15.311,46.985-15.35-7.461-26.794-12.129-27.974-12.606l-19.498-7.89 6.189,20.103c0.426,1.381 0.915,2.921 1.452,4.612 7.39,23.267 24.695,77.753 2.881,134.438-13.813,35.893-29.156,88.011-3.034,126.054 9.1,13.253 22.615,23.704 40.197,31.14-3.649,9.448-11.049,25.271-18.847,36.74l-10.621,15.623h18.891c31.434,0 51.529-7.841 62.852-14.419 11.402-6.625 19.257-15.028 22.727-23.983 0.985,0.033 1.983,0.057 2.979,0.082v103.321h20v-103.322c0.995-0.025 1.993-0.049 2.979-0.082 3.47,8.955 11.324,17.358 22.727,23.983 11.322,6.578 31.418,14.419 62.852,14.419h18.891l-10.621-15.623c-7.798-11.47-15.197-27.292-18.846-36.74 17.581-7.436 31.097-17.886 40.196-31.14 26.121-38.042 10.778-90.16-3.036-126.053zm-57.641-154.729c-0.218,8.368 0.072,16.042 0.39,21.391-15.209,6.218-32.885,13.953-51.446,23.092-11.554,5.689-22.482,11.437-32.789,17.243-4.313-4.074-9.178-8.066-14.376-11.93 25.899-37.301 76.153-47.208 98.221-49.796zm-121.287-18.522c4.266,1.079 9.531,2.576 15.272,4.576 12.729,4.434 23.648,9.905 32.259,16.109-17.097,9.615-30.935,21.871-40.991,36.38-7.618-4.792-15.455-9.265-22.99-13.307 6.156-9.073 13.833-23.853 16.45-43.758zm-30.674,58.882c21.281,11.083 38.3,21.984 50.037,32.004-24.733,15.223-45.245,30.815-61.423,46.689 4.295-35.329-2.126-66.828-8.127-88.326 5.783,2.709 12.464,5.962 19.513,9.633zm4.06,302.869c2.274-4.299 4.502-8.831 6.579-13.405 1.949-4.291 3.546-8.111 4.8-11.465 10.128,2.71 21.342,4.717 33.6,6.005-6.645,7.418-20.995,15.934-44.979,18.865zm126.151-10.657c-4.561-2.649-7.99-5.491-10.397-8.2 12.284-1.288 23.521-3.298 33.667-6.013 1.254,3.354 2.851,7.174 4.8,11.465 2.07,4.56 4.291,9.078 6.558,13.365-13.576-1.695-25.515-5.322-34.628-10.617zm65.938-63.11c-16.694,24.313-54.272,36.641-111.689,36.641s-94.995-12.328-111.689-36.641c-19.915-29.004-8.067-72.103 3.684-103.522 40.306-68.844 165.232-119.91 212.553-137.246-8.486,29.678-18.547,80.012 1.929,133.219 12.19,31.674 25.992,77.285 5.212,107.549z" data-original="#000000" class="active-path" data-old_color="#ffffff" fill="#ffffff"/></g> </svg>
